<svg width="48" height="15" viewBox="0 0 48 15" fill="none" xmlns="http://www.w3.org/2000/svg">
<path d="M3.888 14H5.256L8.784 4.28H7.425L4.572 12.272L1.701 4.28H0.36L3.888 14ZM10.5806 2.435H11.9036V0.95H10.5806V2.435ZM10.5806 14H11.9036V4.28H10.5806V14ZM18.2288 14.261C19.4228 14.261 20.3588 14 21.0368 13.478C21.7208 12.95 22.0628 12.227 22.0628 11.309C22.0628 10.805 21.9548 10.382 21.7388 10.04C21.5288 9.698 21.1658 9.401 20.6498 9.149C20.1398 8.897 19.4378 8.657 18.5438 8.429C17.7818 8.237 17.1938 8.06 16.7798 7.898C16.3718 7.736 16.0898 7.565 15.9338 7.385C15.7778 7.199 15.6998 6.977 15.6998 6.719C15.6998 6.257 15.9158 5.888 16.3478 5.612C16.7798 5.336 17.3408 5.204 18.0308 5.216C18.7628 5.228 19.3658 5.402 19.8398 5.738C20.3138 6.068 20.5988 6.518 20.6948 7.088L22.0448 6.845C21.9788 6.281 21.7688 5.786 21.4148 5.36C21.0608 4.934 20.5928 4.604 20.0108 4.37C19.4348 4.13 18.7808 4.01 18.0488 4.01C17.3168 4.01 16.6718 4.127 16.1138 4.361C15.5618 4.589 15.1298 4.913 14.8178 5.333C14.5118 5.747 14.3588 6.23 14.3588 6.782C14.3588 7.232 14.4608 7.616 14.6648 7.934C14.8748 8.246 15.2318 8.525 15.7358 8.771C16.2398 9.011 16.9298 9.251 17.8058 9.491C18.6278 9.713 19.2428 9.905 19.6508 10.067C20.0648 10.229 20.3408 10.406 20.4788 10.598C20.6168 10.784 20.6858 11.027 20.6858 11.327C20.6858 11.855 20.4728 12.275 20.0468 12.587C19.6208 12.899 19.0388 13.055 18.3008 13.055C17.5448 13.055 16.9088 12.893 16.3928 12.569C15.8768 12.239 15.5498 11.798 15.4118 11.246L14.0618 11.471C14.2298 12.347 14.6798 13.031 15.4118 13.523C16.1498 14.015 17.0888 14.261 18.2288 14.261ZM24.2388 2.435H25.5618V0.95H24.2388V2.435ZM24.2388 14H25.5618V4.28H24.2388V14ZM32.319 14.27C33.279 14.27 34.101 14.054 34.785 13.622C35.475 13.19 36.003 12.59 36.369 11.822C36.741 11.048 36.927 10.151 36.927 9.131C36.927 8.129 36.744 7.244 36.378 6.476C36.018 5.702 35.493 5.099 34.803 4.667C34.119 4.229 33.291 4.01 32.319 4.01C31.371 4.01 30.552 4.226 29.862 4.658C29.178 5.084 28.65 5.681 28.278 6.449C27.906 7.217 27.72 8.111 27.72 9.131C27.72 10.133 27.9 11.021 28.26 11.795C28.626 12.569 29.151 13.175 29.835 13.613C30.525 14.051 31.353 14.27 32.319 14.27ZM32.319 13.001C31.269 13.001 30.474 12.65 29.934 11.948C29.394 11.24 29.124 10.301 29.124 9.131C29.124 7.997 29.385 7.073 29.907 6.359C30.429 5.639 31.233 5.279 32.319 5.279C33.393 5.279 34.194 5.63 34.722 6.332C35.256 7.028 35.523 7.961 35.523 9.131C35.523 10.277 35.259 11.21 34.731 11.93C34.203 12.644 33.399 13.001 32.319 13.001ZM38.9033 14H40.2353V8.816C40.2353 7.718 40.4813 6.857 40.9733 6.233C41.4653 5.609 42.1793 5.297 43.1153 5.297C43.7933 5.297 44.3393 5.462 44.7533 5.792C45.1673 6.116 45.4673 6.56 45.6533 7.124C45.8393 7.688 45.9323 8.327 45.9323 9.041V14H47.2643V8.654C47.2643 8.108 47.1953 7.562 47.0573 7.016C46.9253 6.47 46.7093 5.972 46.4093 5.522C46.1093 5.072 45.7103 4.712 45.2123 4.442C44.7143 4.172 44.0993 4.037 43.3673 4.037C42.6713 4.037 42.0413 4.172 41.4773 4.442C40.9193 4.706 40.4603 5.102 40.1003 5.63V4.28H38.9033V14Z" fill="#282526"/>
</svg>
